<svg xmlns="http://www.w3.org/2000/svg" viewBox="0 0 512 512"><title>LOGO0</title><g id="Layer_14" data-name="Layer 14"><path d="M360.65,431.4c-.54.31-1.09.63-1.64.93-.37.22-.74.42-1.11.63l-1.46.8a187.76,187.76,0,0,1-201.36-14.05l1.11.06h0l4.45.26c1.26.88,2.52,1.75,3.8,2.59h0a184.72,184.72,0,0,0,189.64,9l1-.53,2.08.12.92.05Z" style="fill:#fff"/><path d="M456.05,269.27A187.89,187.89,0,0,1,359,433.62l-.12-.07-1-.59-.32-.2a15.29,15.29,0,0,1-1.28-1.08l.87-.48.51-.28a184.89,184.89,0,0,0,95.37-161.65c0-101.87-82.88-184.74-184.75-184.74S83.56,167.4,83.56,269.27a184.6,184.6,0,0,0,74.24,148l2,1.5a22.22,22.22,0,0,1-3.26-.44L155.1,418l-1.63-.31A187.52,187.52,0,0,1,80.56,269.27c0-103.52,84.22-187.74,187.74-187.74S456.05,165.75,456.05,269.27Z" style="fill:#cc2028"/><path d="M453.05,269.27a184.89,184.89,0,0,1-95.37,161.65c-14-12-25.71-64.88-25.83-65.43-8.92-40.84,7.27-45.88,26-51.72,10.93-3.41,23.32-7.27,31.21-18.9,18.77-27.65,8.37-58.55,6.1-64.46-.69-1.8-9.44-6-9.53-6.06-2.22-1-6.16-2.82-10.72-4.87-8.8-3.95-19.74-8.87-23.83-11.14-1-.77-5.47-8.06-6.26-13.53a2.32,2.32,0,0,1,3.77-2.13l8.29,6.78c1.41,1.15,4,1,4.8,1a1.8,1.8,0,0,0,.39-.08c5-1.83,17-6.91,20.06-14.7,4.13-10.45-6.75-18.83-24.85-31.65-16.26-11.52-29.78,4.45-33.53,9.63a2.34,2.34,0,0,1-2.54.83c-60.81-17.85-114,2.5-124.08,6.76a2.3,2.3,0,0,1-2.49-.46c-8.33-7.8-13.32-10.75-17.16-10.21-3.65.51-5.67,3.89-8.22,8.17a56.22,56.22,0,0,1-7.77,10.74l-4.82,5c-6.93,7.14-6.93,7.14-14.74,16.25l-2.23,2.6a12.18,12.18,0,0,0-1.7,14.26c4.86,9.7,20.28,17.65,25.49,17.32,4.66-.32,8.54-4.32,12.93-10.23a2.32,2.32,0,0,1,4.17,1.55c-2.13,31.62.67,82.61,2.91,123.57,1,18.85,1.92,35.12,2.14,46,.22,11.61-2.39,19.19-7.79,22.52-7.23,4.47-17.61.08-20.06-1.06a184.6,184.6,0,0,1-74.24-148c0-101.87,82.88-184.74,184.74-184.74S453.05,167.4,453.05,269.27Z" style="fill:#cc2028"/><path d="M386.59,293.18C379.28,304,367.94,307.48,357,310.9c-19.32,6-37.55,11.7-28.06,55.23.48,2.18,11.17,50.51,25.19,65.48a184.72,184.72,0,0,1-189.64-9c4.57,1,10.21,1.15,15-1.78,6.37-3.93,9.47-12.38,9.22-25.14-.22-10.95-1.11-27.25-2.14-46.12-2.24-40.88-5-91.77-2.92-123.21a5.32,5.32,0,0,0-9.56-3.54c-4.62,6.21-7.72,8.82-10.73,9-4,.28-18.24-6.94-22.61-15.66-2-4-1.59-7.61,1.3-11l2.23-2.6c7.74-9,7.74-9,14.61-16.11l4.82-5a58.26,58.26,0,0,0,8.2-11.28c2.22-3.73,3.83-6.43,6.06-6.74,2.76-.39,7.3,2.52,14.69,9.43a5.3,5.3,0,0,0,5.71,1c9.89-4.19,62.23-24.21,122.06-6.64a5.36,5.36,0,0,0,5.82-2c4.29-5.91,15.73-18.6,29.37-8.94,18.53,13.12,26.92,20.18,23.79,28.09-2.67,6.73-14.27,11.5-18.1,12.92a5.35,5.35,0,0,1-2.46-.32l-8.29-6.78a5.32,5.32,0,0,0-8.64,4.87c.89,6.17,5.84,14.65,7.7,15.69,4.27,2.38,15.28,7.32,24.13,11.3,4.55,2,8.47,3.8,10.66,4.84a72.26,72.26,0,0,1,8.1,4.63C394.78,237.84,404.31,267.07,386.59,293.18Z" style="fill:#fff"/><path d="M389.07,294.87c-7.89,11.63-20.28,15.49-31.21,18.9-18.74,5.84-34.93,10.88-26,51.72.12.55,11.81,53.47,25.83,65.43.14.12.27.23.41.33s.25.21.38.3a1.41,1.41,0,0,1,.54.78,1.43,1.43,0,0,1-.16,1.22.33.33,0,0,1-.06.1,1.51,1.51,0,0,1-1.21.61,1.49,1.49,0,0,1-.89-.3l-.25-.2a17.77,17.77,0,0,1-2.34-2.15c-14-15-24.71-63.3-25.19-65.48-9.49-43.53,8.74-49.21,28.06-55.23,11-3.42,22.31-6.95,29.62-17.72,17.72-26.11,8.19-55.34,5.86-61.49a72.26,72.26,0,0,0-8.1-4.63c-2.19-1-6.11-2.8-10.66-4.84-8.85-4-19.86-8.92-24.13-11.3-1.86-1-6.81-9.52-7.7-15.69a5.32,5.32,0,0,1,8.64-4.87l8.29,6.78a5.35,5.35,0,0,0,2.46.32c3.83-1.42,15.43-6.19,18.1-12.92,3.13-7.91-5.26-15-23.79-28.09-13.64-9.66-25.08,3-29.37,8.94a5.36,5.36,0,0,1-5.82,2c-59.83-17.57-112.17,2.45-122.06,6.64a5.3,5.3,0,0,1-5.71-1c-7.39-6.91-11.93-9.82-14.69-9.43-2.23.31-3.84,3-6.06,6.74a58.26,58.26,0,0,1-8.2,11.28l-4.82,5c-6.87,7.07-6.87,7.07-14.61,16.11l-2.23,2.6c-2.89,3.36-3.31,6.95-1.3,11,4.37,8.72,18.63,15.94,22.61,15.66,3-.2,6.11-2.81,10.73-9a5.32,5.32,0,0,1,9.56,3.54c-2.11,31.44.68,82.33,2.92,123.21,1,18.87,1.92,35.17,2.14,46.12.25,12.76-2.85,21.21-9.22,25.14-4.76,2.93-10.4,2.75-15,1.78h0a36.37,36.37,0,0,1-8.25-2.85h0l-.32-.16a1.5,1.5,0,0,1-.77-1.61,1.56,1.56,0,0,1,.15-.41,1.48,1.48,0,0,1,2-.63l.53.26c2.45,1.14,12.83,5.53,20.06,1.06,5.4-3.33,8-10.91,7.79-22.52-.22-10.9-1.11-27.17-2.14-46-2.24-41-5-91.95-2.91-123.57a2.32,2.32,0,0,0-4.17-1.55c-4.39,5.91-8.27,9.91-12.93,10.23-5.21.33-20.63-7.62-25.49-17.32a12.18,12.18,0,0,1,1.7-14.26l2.23-2.6c7.81-9.11,7.81-9.11,14.74-16.25l4.82-5a56.22,56.22,0,0,0,7.77-10.74c2.55-4.28,4.57-7.66,8.22-8.17,3.84-.54,8.83,2.41,17.16,10.21a2.3,2.3,0,0,0,2.49.46c10.05-4.26,63.27-24.61,124.08-6.76a2.34,2.34,0,0,0,2.54-.83c3.75-5.18,17.27-21.15,33.53-9.63,18.1,12.82,29,21.2,24.85,31.65-3.09,7.79-15.06,12.87-20.06,14.7a1.8,1.8,0,0,1-.39.08c-.77.07-3.39.18-4.8-1l-8.29-6.78a2.32,2.32,0,0,0-3.77,2.13c.79,5.47,5.28,12.76,6.26,13.53,4.09,2.27,15,7.19,23.83,11.14,4.56,2.05,8.5,3.82,10.72,4.87.09.05,8.84,4.26,9.53,6.06C397.44,236.32,407.84,267.22,389.07,294.87Z" style="fill:#cc2028"/></g><g id="Layer_10" data-name="Layer 10"><ellipse cx="264.85" cy="227.72" rx="3.45" ry="8.34" style="fill:#cc2028"/><ellipse cx="334.48" cy="220.39" rx="3.45" ry="8.34" style="fill:#cc2028"/><path d="M331,259c.23,1.88,26.47-1.37,26.24-3.25s-6.3-2.68-13.54-1.78S330.81,257.14,331,259Z" style="fill:#cc2028"/><path d="M345.53,258.65s14.53,44.5,4.07,55.48" style="fill:none;stroke:#cc2028;stroke-miterlimit:10;stroke-width:3px"/></g><g id="Layer_3_copy" data-name="Layer 3 copy"><g style="opacity:0.97"><path d="M83.91,236.28c-32.9-20-43.24-31.8-41.4-36.27.84-2,4.55-3.38,11.9-3.38,8.55,0,22,1.81,41.63,6.42a9.24,9.24,0,0,1,.2-3.05c-34.47-8.12-53.46-8.52-56.5-1.13-3.13,7.61,11.59,21.28,43.76,40.69Z" style="fill:#cc2028"/><path d="M85.17,234.12a287.7,287.7,0,0,1-25.43-17.06A75.11,75.11,0,0,1,47.1,205.45c-.09-.1-.17-.21-.25-.31s.36.48.11.14l-.38-.52c-.26-.37-.51-.74-.75-1.12s-.36-.61-.52-.93c-.08-.14-.14-.29-.22-.43-.27-.52.17.57,0,0-.08-.27-.18-.54-.26-.82,0-.12,0-.25-.07-.37s0,.73,0,.21a2.17,2.17,0,0,0,0-.36c-.06-.53.06.33-.06.32s.39-1.21,0-.15a.8.8,0,0,1,.19-.32c.24-.2-.49.34-.05.07s-.17.05.16-.17a9.67,9.67,0,0,1,.89-.5c-.42.2.59-.2.77-.26a23.64,23.64,0,0,1,6.33-.81,80.64,80.64,0,0,1,10.07.46,247.69,247.69,0,0,1,32.29,5.85,2.52,2.52,0,0,0,3.16-2.41,8.32,8.32,0,0,1,.12-2.39,2.54,2.54,0,0,0-1.75-3.07c-11.55-2.72-23.28-5.19-35.13-6.17-6.42-.53-14-1-19.91,2a8.74,8.74,0,0,0-4.42,11.1c2.18,6.05,7.54,10.83,12.31,14.87,10,8.5,21.25,15.59,32.48,22.38,1.78,1.07,3.54-.37,3.76-2.16l.41-3.28a2.52,2.52,0,0,0-2.5-2.5,2.55,2.55,0,0,0-2.5,2.5L81,239.56l3.76-2.16c-9.73-5.88-19.44-12-28.36-19.06a89.32,89.32,0,0,1-8.68-7.69c-1-1.08-2-2.19-3-3.36-.42-.53.3.41-.09-.12l-.22-.3c-.18-.25-.36-.5-.53-.76-.35-.52-.68-1.05-1-1.6q-.2-.34-.36-.69c-.09-.18-.39-1-.12-.22a14.06,14.06,0,0,1-.47-1.43c0-.2-.07-.42-.13-.62s0,.65,0-.05c0-.2,0-.39,0-.59s.21-.95,0-.12a7.48,7.48,0,0,0,.27-1.06c0-.13-.32.54,0,0,.11-.19.24-.39.34-.58.28-.52-.41.37,0,0,.14-.13.27-.29.41-.42l.46-.4c-.61.56,0,0,.23-.13.39-.24.81-.44,1.23-.65.13-.06.43-.16-.19.08.14-.05.28-.12.43-.16s.55-.2.83-.28c.55-.17,1.11-.31,1.68-.43.3-.07.61-.13.92-.18s1.23-.18.6-.1a55,55,0,0,1,10.34-.18c12.2.72,24.31,3.37,36.18,6.16l-1.75-3.08a13.28,13.28,0,0,0-.29,3.72l3.17-2.42a275.12,275.12,0,0,0-31.57-5.81,98.59,98.59,0,0,0-10.3-.69c-4,0-9.21,0-12.63,2.49-3.58,2.65-2.49,6.84-.38,10,3.08,4.66,7.51,8.44,11.82,11.93a269,269,0,0,0,29,19.85C85.4,240.12,87.91,235.8,85.17,234.12Z" style="fill:#cc2028"/></g><g style="opacity:0.97"><path d="M177.17,284.31c-31.19-14.43-59.33-28.7-82.4-41.86l-3.17-1.83-.53,3.16,2.22,1.27c23.45,13.39,52.14,27.92,83.94,42.59Z" style="fill:#fff"/><path d="M178.43,282.15c-23.26-10.76-46.31-22.06-68.83-34.31q-8.43-4.59-16.74-9.38c-1.28-.74-3.4-.13-3.68,1.49l-.52,3.16a2.6,2.6,0,0,0,1.15,2.83c21.17,12.19,43,23.3,65,33.88q10.54,5.08,21.19,10a2.53,2.53,0,0,0,3.76-2.16l-.06-3.33c-.06-3.21-5.06-3.22-5,0l.06,3.33,3.76-2.15c-23.43-10.82-46.64-22.17-69.33-34.48q-8.47-4.59-16.83-9.39l1.15,2.82.53-3.16-3.68,1.5c21.12,12.2,42.86,23.31,64.83,33.9q10.34,5,20.75,9.79a2.57,2.57,0,0,0,3.42-.89A2.54,2.54,0,0,0,178.43,282.15Z" style="fill:#fff"/></g><g style="opacity:0.97"><path d="M417.83,373.74c-4-1-8.23-2-12.7-3.23-22.23-5.9-47.63-13.8-74.94-23.23l-.07,3.25c27,9.31,52.16,17.11,74.2,23q6.65,1.75,12.71,3.24Z" style="fill:#fff"/><path d="M418.49,371.33c-22.63-5.51-44.95-12.27-67.08-19.53q-10.31-3.39-20.55-6.93a2.53,2.53,0,0,0-3.17,2.41l-.07,3.25a2.56,2.56,0,0,0,1.83,2.41c22.45,7.73,45.08,15,68,21.28q9.44,2.59,18.94,4.93a2.53,2.53,0,0,0,3.07-1.75l.8-3c.83-3.12-4-4.44-4.82-1.33l-.8,3,3.08-1.74c-22.46-5.5-44.61-12.18-66.57-19.37q-10.2-3.34-20.35-6.84l1.84,2.41.07-3.25-3.16,2.41c22.63,7.82,45.44,15.15,68.53,21.5,6.34,1.74,12.71,3.41,19.1,5C420.29,376.91,421.62,372.09,418.49,371.33Z" style="fill:#fff"/></g><g style="opacity:0.97"><path d="M439.9,341.55a10.17,10.17,0,0,1-.27,3.38c30.1,18.71,39.63,29.78,37.86,34.1-1.71,4.13-15.14,5.36-46.67-1.49l0,0-.88,2.87c15.09,3.32,26.86,5,35.24,5,8.61,0,13.67-1.75,15.11-5.26C483.28,372.83,469.71,359.86,439.9,341.55Z" style="fill:#cc2028"/><path d="M437.4,341.55a8.79,8.79,0,0,1-.18,2.71,2.57,2.57,0,0,0,1.15,2.83,238.58,238.58,0,0,1,24.85,17.23,84.09,84.09,0,0,1,7.16,6.44c.83.86,1.64,1.74,2.39,2.67.11.13.67.86.22.26.16.2.31.41.46.62.27.37.53.76.77,1.16s.37.64.53,1c.08.15.14.3.22.45-.2-.38-.13-.39,0,0,.08.27.15.54.23.8.17.57,0-.3,0-.17s0,.27,0,.39c-.07.81.17-.57,0,.07s.36-.53,0,.1.46-.45-.1.11c-.07.06-.25.17-.28.24.09-.27.51-.3,0,0-.26.14-.55.27-.8.42s.64-.21,0,0l-.57.19a18.47,18.47,0,0,1-2.75.6c-.37.06.66-.07.08,0l-.34,0-.9.09c-.66.06-1.32.09-2,.12-1.46.05-2.93,0-4.39,0-10.66-.38-21.27-2.48-31.67-4.73a2.5,2.5,0,0,0-2.43.64c-.89,1.07-1.15,2.7-1.55,4a2.51,2.51,0,0,0,1.74,3.07,216.88,216.88,0,0,0,29.39,4.8,59.93,59.93,0,0,0,12.49-.07c3.52-.46,7.57-1.35,10-4.17,3.09-3.57,2.19-8.18,0-11.94-3.06-5.17-7.84-9.35-12.44-13.1a251.29,251.29,0,0,0-27.48-19c-2.75-1.69-5.27,2.63-2.53,4.32a269.73,269.73,0,0,1,23.84,16.1c2.68,2.07,5.29,4.24,7.75,6.56q1.57,1.47,3,3.05c.41.45.81.9,1.2,1.36l.55.66.26.33c-.36-.45.06.08.1.14a23.7,23.7,0,0,1,1.7,2.6c.2.38.39.76.57,1.15s-.16-.49,0,.1c.08.22.16.44.23.67s.15.7.25,1,0-.65,0,0c0,.2,0,.41,0,.61s0,.31,0,.47c0,.55.11-.34,0-.09s-.17.66-.28,1c.2-.59,0,0-.15.23a4,4,0,0,1-.23.34c.06-.08.32-.36,0,0s-.4.41-.62.6c-.06.06-.36.28,0,0l-.49.32a12,12,0,0,1-4.2,1.47,44.81,44.81,0,0,1-11.51.41c-10.15-.59-20.2-2.58-30.11-4.76l1.75,3.08.88-2.88-.64,1.11,0,0-2.44.64c10.25,2.22,20.67,4.22,31.16,4.82,4.94.28,10.86.6,15.43-1.71,9.65-4.88-3.16-16.43-7.3-20-8.81-7.65-18.67-14.11-28.55-20.26l1.15,2.82a13.75,13.75,0,0,0,.36-4C442.22,338.35,437.22,338.33,437.4,341.55Z" style="fill:#cc2028"/></g></g></svg>
